<mxfile host="app.diagrams.net" modified="2020-09-09T21:48:34.261Z" agent="5.0 (Windows NT 10.0; Win64; x64) AppleWebKit/537.36 (KHTML, like Gecko) Chrome/81.0.4044.138 Safari/537.36 OPR/68.0.3618.206" etag="6SNaNmUs9IvAR3l9d_z3" version="13.6.9" type="github">
  <diagram id="L33ve2XNf-j81ZjS3T_S" name="Page-1">
    <mxGraphModel dx="744" dy="601" grid="1" gridSize="10" guides="1" tooltips="1" connect="1" arrows="1" fold="1" page="1" pageScale="1" pageWidth="827" pageHeight="1169" math="0" shadow="0">
      <root>
        <mxCell id="0" />
        <mxCell id="1" parent="0" />
        <mxCell id="oF4vFwnGdv9JNcmL81rW-35" style="edgeStyle=none;rounded=0;orthogonalLoop=1;jettySize=auto;html=1;endArrow=none;endFill=0;" parent="1" source="oF4vFwnGdv9JNcmL81rW-1" target="oF4vFwnGdv9JNcmL81rW-4" edge="1">
          <mxGeometry relative="1" as="geometry" />
        </mxCell>
        <mxCell id="oF4vFwnGdv9JNcmL81rW-36" style="edgeStyle=none;rounded=0;orthogonalLoop=1;jettySize=auto;html=1;entryX=1;entryY=1;entryDx=0;entryDy=0;endArrow=none;endFill=0;" parent="1" source="oF4vFwnGdv9JNcmL81rW-1" target="oF4vFwnGdv9JNcmL81rW-2" edge="1">
          <mxGeometry relative="1" as="geometry" />
        </mxCell>
        <mxCell id="oF4vFwnGdv9JNcmL81rW-37" style="edgeStyle=none;rounded=0;orthogonalLoop=1;jettySize=auto;html=1;endArrow=none;endFill=0;" parent="1" source="oF4vFwnGdv9JNcmL81rW-1" target="oF4vFwnGdv9JNcmL81rW-5" edge="1">
          <mxGeometry relative="1" as="geometry" />
        </mxCell>
        <mxCell id="oF4vFwnGdv9JNcmL81rW-1" value="Cliente" style="whiteSpace=wrap;html=1;align=center;" parent="1" vertex="1">
          <mxGeometry x="340" y="240" width="100" height="40" as="geometry" />
        </mxCell>
        <mxCell id="oF4vFwnGdv9JNcmL81rW-2" value="Nome" style="ellipse;whiteSpace=wrap;html=1;align=center;" parent="1" vertex="1">
          <mxGeometry x="200" y="170" width="100" height="40" as="geometry" />
        </mxCell>
        <mxCell id="oF4vFwnGdv9JNcmL81rW-4" value="CPF" style="ellipse;whiteSpace=wrap;html=1;align=center;fontStyle=4;" parent="1" vertex="1">
          <mxGeometry x="330" y="160" width="100" height="40" as="geometry" />
        </mxCell>
        <mxCell id="oF4vFwnGdv9JNcmL81rW-5" value="Telefones" style="ellipse;shape=doubleEllipse;margin=3;whiteSpace=wrap;html=1;align=center;" parent="1" vertex="1">
          <mxGeometry x="200" y="240" width="100" height="40" as="geometry" />
        </mxCell>
        <mxCell id="oF4vFwnGdv9JNcmL81rW-34" style="edgeStyle=none;rounded=0;orthogonalLoop=1;jettySize=auto;html=1;entryX=1;entryY=0.5;entryDx=0;entryDy=0;endArrow=none;endFill=0;" parent="1" source="oF4vFwnGdv9JNcmL81rW-6" target="oF4vFwnGdv9JNcmL81rW-1" edge="1">
          <mxGeometry relative="1" as="geometry" />
        </mxCell>
        <mxCell id="oF4vFwnGdv9JNcmL81rW-6" value="Possui" style="shape=rhombus;perimeter=rhombusPerimeter;whiteSpace=wrap;html=1;align=center;" parent="1" vertex="1">
          <mxGeometry x="530" y="230" width="120" height="60" as="geometry" />
        </mxCell>
        <mxCell id="oF4vFwnGdv9JNcmL81rW-30" style="edgeStyle=none;rounded=0;orthogonalLoop=1;jettySize=auto;html=1;entryX=0;entryY=1;entryDx=0;entryDy=0;endArrow=none;endFill=0;" parent="1" source="oF4vFwnGdv9JNcmL81rW-7" target="oF4vFwnGdv9JNcmL81rW-8" edge="1">
          <mxGeometry relative="1" as="geometry" />
        </mxCell>
        <mxCell id="oF4vFwnGdv9JNcmL81rW-31" style="edgeStyle=none;rounded=0;orthogonalLoop=1;jettySize=auto;html=1;endArrow=none;endFill=0;" parent="1" source="oF4vFwnGdv9JNcmL81rW-7" target="oF4vFwnGdv9JNcmL81rW-10" edge="1">
          <mxGeometry relative="1" as="geometry" />
        </mxCell>
        <mxCell id="oF4vFwnGdv9JNcmL81rW-32" style="edgeStyle=none;rounded=0;orthogonalLoop=1;jettySize=auto;html=1;endArrow=none;endFill=0;" parent="1" source="oF4vFwnGdv9JNcmL81rW-7" target="oF4vFwnGdv9JNcmL81rW-9" edge="1">
          <mxGeometry relative="1" as="geometry" />
        </mxCell>
        <mxCell id="oF4vFwnGdv9JNcmL81rW-33" style="edgeStyle=none;rounded=0;orthogonalLoop=1;jettySize=auto;html=1;entryX=1;entryY=0.5;entryDx=0;entryDy=0;endArrow=none;endFill=0;" parent="1" source="oF4vFwnGdv9JNcmL81rW-7" target="oF4vFwnGdv9JNcmL81rW-6" edge="1">
          <mxGeometry relative="1" as="geometry" />
        </mxCell>
        <mxCell id="oF4vFwnGdv9JNcmL81rW-38" style="edgeStyle=none;rounded=0;orthogonalLoop=1;jettySize=auto;html=1;endArrow=none;endFill=0;" parent="1" source="oF4vFwnGdv9JNcmL81rW-7" target="oF4vFwnGdv9JNcmL81rW-15" edge="1">
          <mxGeometry relative="1" as="geometry" />
        </mxCell>
        <mxCell id="oF4vFwnGdv9JNcmL81rW-48" style="edgeStyle=none;rounded=0;orthogonalLoop=1;jettySize=auto;html=1;entryX=0.575;entryY=0.983;entryDx=0;entryDy=0;entryPerimeter=0;endArrow=none;endFill=0;" parent="1" source="oF4vFwnGdv9JNcmL81rW-7" target="oF4vFwnGdv9JNcmL81rW-47" edge="1">
          <mxGeometry relative="1" as="geometry" />
        </mxCell>
        <mxCell id="SW4eC0XUBeYohrpptzX0-1" style="rounded=0;orthogonalLoop=1;jettySize=auto;html=1;exitX=1;exitY=0.5;exitDx=0;exitDy=0;entryX=0;entryY=0.5;entryDx=0;entryDy=0;endArrow=none;endFill=0;" edge="1" parent="1" source="oF4vFwnGdv9JNcmL81rW-7" target="oF4vFwnGdv9JNcmL81rW-11">
          <mxGeometry relative="1" as="geometry" />
        </mxCell>
        <mxCell id="oF4vFwnGdv9JNcmL81rW-7" value="Veiculo" style="whiteSpace=wrap;html=1;align=center;" parent="1" vertex="1">
          <mxGeometry x="770" y="240" width="100" height="40" as="geometry" />
        </mxCell>
        <mxCell id="oF4vFwnGdv9JNcmL81rW-8" value="Modelo" style="ellipse;whiteSpace=wrap;html=1;align=center;" parent="1" vertex="1">
          <mxGeometry x="890" y="190" width="100" height="40" as="geometry" />
        </mxCell>
        <mxCell id="oF4vFwnGdv9JNcmL81rW-9" value="Placa" style="ellipse;whiteSpace=wrap;html=1;align=center;fontStyle=4;" parent="1" vertex="1">
          <mxGeometry x="680" y="160" width="100" height="40" as="geometry" />
        </mxCell>
        <mxCell id="oF4vFwnGdv9JNcmL81rW-10" value="Cor" style="ellipse;whiteSpace=wrap;html=1;align=center;" parent="1" vertex="1">
          <mxGeometry x="790" y="160" width="100" height="40" as="geometry" />
        </mxCell>
        <mxCell id="oF4vFwnGdv9JNcmL81rW-26" style="edgeStyle=none;rounded=0;orthogonalLoop=1;jettySize=auto;html=1;entryX=0;entryY=0.75;entryDx=0;entryDy=0;endArrow=none;endFill=0;" parent="1" source="oF4vFwnGdv9JNcmL81rW-11" target="oF4vFwnGdv9JNcmL81rW-12" edge="1">
          <mxGeometry relative="1" as="geometry" />
        </mxCell>
        <mxCell id="oF4vFwnGdv9JNcmL81rW-27" style="edgeStyle=none;rounded=0;orthogonalLoop=1;jettySize=auto;html=1;endArrow=none;endFill=0;" parent="1" source="oF4vFwnGdv9JNcmL81rW-11" target="oF4vFwnGdv9JNcmL81rW-23" edge="1">
          <mxGeometry relative="1" as="geometry" />
        </mxCell>
        <mxCell id="oF4vFwnGdv9JNcmL81rW-28" style="edgeStyle=none;rounded=0;orthogonalLoop=1;jettySize=auto;html=1;endArrow=none;endFill=0;" parent="1" source="oF4vFwnGdv9JNcmL81rW-11" target="oF4vFwnGdv9JNcmL81rW-22" edge="1">
          <mxGeometry relative="1" as="geometry" />
        </mxCell>
        <mxCell id="oF4vFwnGdv9JNcmL81rW-29" style="edgeStyle=none;rounded=0;orthogonalLoop=1;jettySize=auto;html=1;entryX=0.57;entryY=0.05;entryDx=0;entryDy=0;entryPerimeter=0;endArrow=none;endFill=0;" parent="1" source="oF4vFwnGdv9JNcmL81rW-11" target="oF4vFwnGdv9JNcmL81rW-21" edge="1">
          <mxGeometry relative="1" as="geometry" />
        </mxCell>
        <mxCell id="oF4vFwnGdv9JNcmL81rW-11" value="Fica" style="shape=rhombus;perimeter=rhombusPerimeter;whiteSpace=wrap;html=1;align=center;" parent="1" vertex="1">
          <mxGeometry x="1040" y="210" width="120" height="60" as="geometry" />
        </mxCell>
        <mxCell id="oF4vFwnGdv9JNcmL81rW-24" style="rounded=0;orthogonalLoop=1;jettySize=auto;html=1;entryX=0.5;entryY=1;entryDx=0;entryDy=0;endArrow=none;endFill=0;" parent="1" source="oF4vFwnGdv9JNcmL81rW-12" target="oF4vFwnGdv9JNcmL81rW-14" edge="1">
          <mxGeometry relative="1" as="geometry" />
        </mxCell>
        <mxCell id="oF4vFwnGdv9JNcmL81rW-25" style="edgeStyle=none;rounded=0;orthogonalLoop=1;jettySize=auto;html=1;entryX=0.5;entryY=1;entryDx=0;entryDy=0;endArrow=none;endFill=0;" parent="1" source="oF4vFwnGdv9JNcmL81rW-12" target="oF4vFwnGdv9JNcmL81rW-13" edge="1">
          <mxGeometry relative="1" as="geometry" />
        </mxCell>
        <mxCell id="oF4vFwnGdv9JNcmL81rW-12" value="Vaga" style="whiteSpace=wrap;html=1;align=center;" parent="1" vertex="1">
          <mxGeometry x="1230" y="190" width="100" height="40" as="geometry" />
        </mxCell>
        <mxCell id="oF4vFwnGdv9JNcmL81rW-13" value="Localização" style="ellipse;whiteSpace=wrap;html=1;align=center;fontStyle=4;" parent="1" vertex="1">
          <mxGeometry x="1170" y="110" width="100" height="40" as="geometry" />
        </mxCell>
        <mxCell id="oF4vFwnGdv9JNcmL81rW-14" value="Situação" style="ellipse;whiteSpace=wrap;html=1;align=center;" parent="1" vertex="1">
          <mxGeometry x="1310" y="110" width="100" height="40" as="geometry" />
        </mxCell>
        <mxCell id="oF4vFwnGdv9JNcmL81rW-39" style="edgeStyle=none;rounded=0;orthogonalLoop=1;jettySize=auto;html=1;entryX=0.5;entryY=0;entryDx=0;entryDy=0;endArrow=none;endFill=0;" parent="1" source="oF4vFwnGdv9JNcmL81rW-15" target="oF4vFwnGdv9JNcmL81rW-16" edge="1">
          <mxGeometry relative="1" as="geometry" />
        </mxCell>
        <mxCell id="oF4vFwnGdv9JNcmL81rW-43" style="edgeStyle=none;rounded=0;orthogonalLoop=1;jettySize=auto;html=1;entryX=1;entryY=0.5;entryDx=0;entryDy=0;endArrow=none;endFill=0;" parent="1" source="oF4vFwnGdv9JNcmL81rW-15" target="oF4vFwnGdv9JNcmL81rW-17" edge="1">
          <mxGeometry relative="1" as="geometry" />
        </mxCell>
        <mxCell id="oF4vFwnGdv9JNcmL81rW-15" value="Registra" style="shape=rhombus;perimeter=rhombusPerimeter;whiteSpace=wrap;html=1;align=center;" parent="1" vertex="1">
          <mxGeometry x="760" y="390" width="120" height="60" as="geometry" />
        </mxCell>
        <mxCell id="oF4vFwnGdv9JNcmL81rW-40" style="edgeStyle=none;rounded=0;orthogonalLoop=1;jettySize=auto;html=1;endArrow=none;endFill=0;entryX=0;entryY=0.5;entryDx=0;entryDy=0;" parent="1" source="oF4vFwnGdv9JNcmL81rW-16" target="SW4eC0XUBeYohrpptzX0-2" edge="1">
          <mxGeometry relative="1" as="geometry">
            <mxPoint x="912.9129044202616" y="583.2732720600375" as="targetPoint" />
          </mxGeometry>
        </mxCell>
        <mxCell id="oF4vFwnGdv9JNcmL81rW-41" style="edgeStyle=none;rounded=0;orthogonalLoop=1;jettySize=auto;html=1;entryX=0;entryY=0;entryDx=0;entryDy=0;endArrow=none;endFill=0;" parent="1" source="oF4vFwnGdv9JNcmL81rW-16" target="SW4eC0XUBeYohrpptzX0-5" edge="1">
          <mxGeometry relative="1" as="geometry">
            <mxPoint x="924.8544793961789" y="655.7744321365487" as="targetPoint" />
          </mxGeometry>
        </mxCell>
        <mxCell id="oF4vFwnGdv9JNcmL81rW-42" style="edgeStyle=none;rounded=0;orthogonalLoop=1;jettySize=auto;html=1;entryX=0.5;entryY=0;entryDx=0;entryDy=0;endArrow=none;endFill=0;" parent="1" source="oF4vFwnGdv9JNcmL81rW-16" target="oF4vFwnGdv9JNcmL81rW-20" edge="1">
          <mxGeometry relative="1" as="geometry" />
        </mxCell>
        <mxCell id="oF4vFwnGdv9JNcmL81rW-16" value="Atendente" style="whiteSpace=wrap;html=1;align=center;" parent="1" vertex="1">
          <mxGeometry x="770" y="550" width="100" height="40" as="geometry" />
        </mxCell>
        <mxCell id="oF4vFwnGdv9JNcmL81rW-17" value="Comprovante" style="ellipse;whiteSpace=wrap;html=1;align=center;" parent="1" vertex="1">
          <mxGeometry x="620" y="410" width="100" height="40" as="geometry" />
        </mxCell>
        <mxCell id="oF4vFwnGdv9JNcmL81rW-20" value="Nome" style="ellipse;whiteSpace=wrap;html=1;align=center;" parent="1" vertex="1">
          <mxGeometry x="770" y="650" width="100" height="40" as="geometry" />
        </mxCell>
        <mxCell id="oF4vFwnGdv9JNcmL81rW-21" value="Data e Hora de Entrada" style="ellipse;whiteSpace=wrap;html=1;align=center;" parent="1" vertex="1">
          <mxGeometry x="990" y="330" width="100" height="40" as="geometry" />
        </mxCell>
        <mxCell id="oF4vFwnGdv9JNcmL81rW-22" value="Cor" style="ellipse;whiteSpace=wrap;html=1;align=center;" parent="1" vertex="1">
          <mxGeometry x="1130" y="330" width="100" height="40" as="geometry" />
        </mxCell>
        <mxCell id="oF4vFwnGdv9JNcmL81rW-23" value="Data e Hora de Saída" style="ellipse;whiteSpace=wrap;html=1;align=center;" parent="1" vertex="1">
          <mxGeometry x="1200" y="280" width="100" height="40" as="geometry" />
        </mxCell>
        <mxCell id="oF4vFwnGdv9JNcmL81rW-45" style="edgeStyle=none;rounded=0;orthogonalLoop=1;jettySize=auto;html=1;endArrow=none;endFill=0;" parent="1" source="oF4vFwnGdv9JNcmL81rW-44" target="oF4vFwnGdv9JNcmL81rW-16" edge="1">
          <mxGeometry relative="1" as="geometry" />
        </mxCell>
        <mxCell id="oF4vFwnGdv9JNcmL81rW-46" style="edgeStyle=none;rounded=0;orthogonalLoop=1;jettySize=auto;html=1;entryX=0.6;entryY=1;entryDx=0;entryDy=0;entryPerimeter=0;endArrow=none;endFill=0;" parent="1" source="oF4vFwnGdv9JNcmL81rW-44" target="oF4vFwnGdv9JNcmL81rW-1" edge="1">
          <mxGeometry relative="1" as="geometry" />
        </mxCell>
        <mxCell id="oF4vFwnGdv9JNcmL81rW-44" value="Cadastra" style="shape=rhombus;perimeter=rhombusPerimeter;whiteSpace=wrap;html=1;align=center;" parent="1" vertex="1">
          <mxGeometry x="340" y="530" width="120" height="60" as="geometry" />
        </mxCell>
        <mxCell id="oF4vFwnGdv9JNcmL81rW-49" style="edgeStyle=none;rounded=0;orthogonalLoop=1;jettySize=auto;html=1;endArrow=none;endFill=0;" parent="1" source="oF4vFwnGdv9JNcmL81rW-47" target="oF4vFwnGdv9JNcmL81rW-50" edge="1">
          <mxGeometry relative="1" as="geometry">
            <mxPoint x="560" y="50" as="targetPoint" />
          </mxGeometry>
        </mxCell>
        <mxCell id="oF4vFwnGdv9JNcmL81rW-47" value="Retira" style="shape=rhombus;perimeter=rhombusPerimeter;whiteSpace=wrap;html=1;align=center;" parent="1" vertex="1">
          <mxGeometry x="500" y="100" width="120" height="60" as="geometry" />
        </mxCell>
        <mxCell id="oF4vFwnGdv9JNcmL81rW-52" style="edgeStyle=none;rounded=0;orthogonalLoop=1;jettySize=auto;html=1;endArrow=none;endFill=0;entryX=0;entryY=0.5;entryDx=0;entryDy=0;" parent="1" source="oF4vFwnGdv9JNcmL81rW-50" target="SW4eC0XUBeYohrpptzX0-6" edge="1">
          <mxGeometry relative="1" as="geometry">
            <mxPoint x="643.3600932797183" y="37.20798558404363" as="targetPoint" />
          </mxGeometry>
        </mxCell>
        <mxCell id="oF4vFwnGdv9JNcmL81rW-50" value="Manobrista" style="whiteSpace=wrap;html=1;align=center;" parent="1" vertex="1">
          <mxGeometry x="510" y="30" width="100" height="40" as="geometry" />
        </mxCell>
        <mxCell id="SW4eC0XUBeYohrpptzX0-2" value="CPF" style="ellipse;whiteSpace=wrap;html=1;align=center;fontStyle=4;" vertex="1" parent="1">
          <mxGeometry x="920" y="565" width="100" height="40" as="geometry" />
        </mxCell>
        <mxCell id="SW4eC0XUBeYohrpptzX0-5" value="Telefones" style="ellipse;shape=doubleEllipse;margin=3;whiteSpace=wrap;html=1;align=center;" vertex="1" parent="1">
          <mxGeometry x="890" y="640" width="100" height="40" as="geometry" />
        </mxCell>
        <mxCell id="SW4eC0XUBeYohrpptzX0-6" value="CNH" style="ellipse;whiteSpace=wrap;html=1;align=center;fontStyle=4;" vertex="1" parent="1">
          <mxGeometry x="640" y="10" width="100" height="40" as="geometry" />
        </mxCell>
      </root>
    </mxGraphModel>
  </diagram>
</mxfile>
